<?xml version="1.0" standalone="no"?>
<!DOCTYPE svg PUBLIC "-//W3C//DTD SVG 20010904//EN"
 "http://www.w3.org/TR/2001/REC-SVG-20010904/DTD/svg10.dtd">
<svg version="1.0" xmlns="http://www.w3.org/2000/svg"
 width="360.000000pt" height="300.000000pt" viewBox="0 0 360.000000 300.000000"
 preserveAspectRatio="xMidYMid meet">

<g transform="translate(0.000000,300.000000) scale(0.100000,-0.100000)"
fill="#000000" stroke="none">
<path d="M2155 2990 c-212 -33 -323 -112 -345 -243 -15 -91 -1 -164 80 -432
59 -192 69 -236 80 -339 17 -167 -24 -299 -125 -405 -66 -70 -111 -86 -230
-85 -95 1 -166 19 -338 85 -223 86 -286 94 -347 43 -40 -34 -70 -121 -77 -224
l-6 -85 39 48 c83 105 168 122 308 62 138 -59 198 -76 283 -82 l82 -6 -20 -28
c-33 -47 -68 -142 -110 -303 -63 -242 -101 -306 -207 -358 -65 -32 -70 -33
-192 -33 -110 0 -134 4 -198 27 -102 37 -172 81 -263 166 -159 149 -263 327
-320 549 -57 222 -2 568 133 838 66 130 134 223 247 336 248 248 546 378 937
409 76 7 140 13 142 15 9 9 -190 17 -303 12 -365 -17 -698 -168 -971 -441
-216 -216 -347 -455 -410 -747 -14 -64 -18 -126 -18 -264 1 -723 318 -1230
887 -1420 294 -98 558 -106 742 -21 114 52 158 121 157 244 0 90 -14 153 -81
374 -60 195 -70 238 -81 342 -17 167 24 299 125 405 66 70 111 86 230 85 95
-1 166 -19 338 -85 223 -86 286 -94 347 -43 40 34 70 121 77 224 l6 85 -39
-48 c-83 -105 -168 -122 -308 -62 -138 59 -198 76 -283 82 l-82 6 20 28 c33
47 68 143 110 303 63 239 107 312 219 365 50 24 66 26 180 26 110 0 134 -4
198 -27 102 -37 172 -81 263 -166 159 -149 263 -327 320 -549 57 -222 2 -568
-133 -838 -66 -129 -134 -223 -247 -336 -247 -248 -545 -378 -937 -409 -76 -7
-140 -13 -142 -15 -9 -9 190 -17 303 -12 365 17 698 168 971 441 327 328 467
715 424 1175 -52 569 -281 959 -688 1174 -219 115 -557 186 -747 157z"/>
</g>
</svg>
